<?xml version="1.0" encoding="UTF-8"?>
<svg id="Layer_2" data-name="Layer 2" xmlns="http://www.w3.org/2000/svg" viewBox="0 0 802.44 720.6">
  <defs>
    <style>

    </style>
  </defs>
  <g id="Layer_1-2" data-name="Layer 1">
    <g class="cls-2">
      <path class="cls-1" d="M442.53,221.76c0,28.72-19.9,46.68-43.78,60.27-19,10.16-24.11,12.8-40.73,21.99-7.44,3.71-14.92,6.49-22.59,6.49-21.94,0-29.48-16.22-29.48-26.56,0-16.81,13.69-23.4,32.13-34.18,5.1-2.98,15.64-8.31,15.64-14.38,0-4-2.72-5.66-6.97-5.66-4.96,0-11.24,4.84-15.89,8.5-5.15,4.05-13.93,12.54-27.82,12.54-17.49,0-32.08-10.81-32.08-29.06,0-25.73,30.36-61.43,89.99-61.43,55.09,0,81.57,30.19,81.57,61.49ZM382.27,350.44c-.03,22.11-14.69,35.26-36.37,35.29-19.48.03-34.09-13.08-34.07-35.19.03-22.18,14.67-35.32,35.26-35.35,20.58-.02,35.21,13.08,35.18,35.26Z"/>
      <path class="cls-1" d="M681.88,341.62c0,45.33-31.41,73.68-69.11,95.13-29.99,16.03-38.06,20.21-64.29,34.72-11.74,5.86-23.56,10.24-35.66,10.24-34.63,0-46.53-25.61-46.53-41.93,0-26.54,21.62-36.94,50.71-53.96,8.04-4.71,24.68-13.11,24.68-22.69,0-6.31-4.29-8.93-11.01-8.93-7.83,0-17.75,7.64-25.08,13.41-8.13,6.39-21.99,19.79-43.91,19.79-27.61,0-50.63-17.06-50.63-45.87,0-40.61,47.92-96.97,142.05-96.97,86.97,0,128.76,47.65,128.77,97.06ZM586.77,544.75c-.04,34.91-23.18,55.65-57.42,55.7-30.75.04-53.82-20.65-53.77-55.55.04-35.01,23.16-55.76,55.65-55.8,32.49-.04,55.58,20.65,55.54,55.65Z"/>
      <path class="cls-1" d="M451.23,469.2c0,32.35-22.42,52.59-49.32,67.9-21.4,11.44-27.16,14.42-45.89,24.78-8.38,4.18-16.81,7.31-25.45,7.31-24.71,0-33.21-18.28-33.21-29.93,0-18.94,15.43-26.37,36.2-38.51,5.74-3.36,17.62-9.36,17.62-16.2,0-4.51-3.06-6.38-7.86-6.38-5.59,0-12.67,5.46-17.9,9.57-5.8,4.56-15.7,14.13-31.34,14.13-19.71,0-36.14-12.17-36.14-32.74,0-28.98,34.2-69.21,101.39-69.21,62.07,0,91.9,34.01,91.9,69.27ZM383.34,614.18c-.03,24.91-16.55,39.72-40.98,39.76-21.94.03-38.41-14.74-38.38-39.65.03-24.99,16.53-39.8,39.72-39.83,23.19-.03,39.67,14.74,39.64,39.72Z"/>
      <path class="cls-1" d="M594.79,63.37c0,29.6-20.51,48.11-45.12,62.11-19.58,10.47-24.85,13.19-41.98,22.67-7.67,3.82-15.38,6.69-23.28,6.69-22.61,0-30.38-16.72-30.38-27.38,0-17.32,14.11-24.12,33.11-35.23,5.25-3.07,16.12-8.56,16.12-14.82,0-4.12-2.8-5.83-7.19-5.83-5.11,0-11.59,4.99-16.37,8.76-5.31,4.17-14.36,12.92-28.67,12.92-18.03,0-33.06-11.14-33.06-29.95,0-26.51,31.29-63.31,92.75-63.31,56.78,0,84.07,31.11,84.07,63.37ZM532.68,195.99c-.03,22.79-15.14,36.34-37.49,36.37-20.07.03-35.14-13.48-35.11-36.27.03-22.86,15.12-36.4,36.34-36.43,21.21-.02,36.29,13.48,36.26,36.33Z"/>
      <path class="cls-1" d="M613.97,159.07c0,11.49-7.97,18.68-17.52,24.12-7.6,4.07-9.65,5.12-16.3,8.8-2.98,1.48-5.97,2.6-9.04,2.6-8.78,0-11.8-6.49-11.8-10.63,0-6.73,5.48-9.37,12.86-13.68,2.04-1.19,6.26-3.32,6.26-5.75,0-1.6-1.09-2.27-2.79-2.27-1.99,0-4.5,1.94-6.36,3.4-2.06,1.62-5.58,5.02-11.13,5.02-7,0-12.84-4.32-12.84-11.63,0-10.3,12.15-24.59,36.02-24.59,22.05,0,32.65,12.08,32.65,24.61ZM589.85,210.58c-.01,8.85-5.88,14.11-14.56,14.12-7.8.01-13.65-5.24-13.63-14.09.01-8.88,5.87-14.14,14.11-14.15,8.24,0,14.09,5.24,14.08,14.11Z"/>
      <path class="cls-1" d="M462.53,576.46c0,11.86-8.22,19.27-18.08,24.89-7.85,4.19-9.96,5.29-16.82,9.08-3.07,1.53-6.16,2.68-9.33,2.68-9.06,0-12.17-6.7-12.17-10.97,0-6.94,5.65-9.66,13.27-14.12,2.1-1.23,6.46-3.43,6.46-5.94,0-1.65-1.12-2.34-2.88-2.34-2.05,0-4.64,2-6.56,3.51-2.13,1.67-5.75,5.18-11.49,5.18-7.22,0-13.25-4.46-13.25-12,0-10.62,12.54-25.37,37.16-25.37,22.75,0,33.68,12.47,33.68,25.39ZM437.65,629.6c-.01,9.13-6.06,14.56-15.02,14.57-8.04.01-14.08-5.4-14.07-14.53.01-9.16,6.06-14.59,14.56-14.6,8.5,0,14.54,5.4,14.53,14.56Z"/>
      <path class="cls-1" d="M711.56,488.54c0,19.63-13.6,31.9-29.92,41.19-12.99,6.94-16.48,8.75-27.84,15.03-5.08,2.54-10.2,4.43-15.44,4.43-14.99,0-20.15-11.09-20.15-18.16,0-11.49,9.36-16,21.96-23.36,3.48-2.04,10.69-5.68,10.69-9.83,0-2.73-1.86-3.87-4.77-3.87-3.39,0-7.69,3.31-10.86,5.81-3.52,2.77-9.52,8.57-19.01,8.57-11.96,0-21.92-7.39-21.92-19.86,0-17.58,20.75-41.99,61.51-41.99,37.66,0,55.76,20.63,55.76,42.03ZM670.37,576.5c-.02,15.12-10.04,24.1-24.86,24.12-13.31.02-23.3-8.94-23.28-24.06.02-15.16,10.03-24.14,24.1-24.16,14.07-.02,24.07,8.94,24.05,24.1Z"/>
      <path class="cls-1" d="M286,352.4c0,37.7-26.13,61.28-57.47,79.12-24.94,13.33-31.65,16.81-53.47,28.87-9.77,4.87-19.59,8.52-29.66,8.52-28.8,0-38.7-21.29-38.7-34.87,0-22.07,17.98-30.72,42.18-44.88,6.69-3.91,20.53-10.9,20.53-18.87,0-5.25-3.57-7.43-9.15-7.43-6.52,0-14.76,6.36-20.86,11.15-6.76,5.32-18.29,16.46-36.52,16.46-22.97,0-42.11-14.19-42.11-38.15,0-33.77,39.86-80.64,118.14-80.64,72.33,0,107.09,39.63,107.09,80.72ZM206.89,521.34c-.04,29.03-19.28,46.29-47.75,46.33-25.57.03-44.76-17.17-44.72-46.2.03-29.11,19.26-46.37,46.29-46.41,27.02-.03,46.22,17.17,46.19,46.28Z"/>
      <path class="cls-1" d="M275.15,616.72c0,18.19-12.61,29.57-27.74,38.18-12.04,6.44-15.27,8.11-25.81,13.93-4.71,2.35-9.45,4.11-14.31,4.11-13.9,0-18.68-10.28-18.68-16.83,0-10.65,8.68-14.83,20.35-21.66,3.23-1.89,9.91-5.26,9.91-9.11,0-2.53-1.72-3.59-4.42-3.59-3.14,0-7.12,3.07-10.06,5.38-3.26,2.57-8.83,7.94-17.62,7.94-11.08,0-20.32-6.85-20.32-18.41,0-16.3,19.23-38.92,57.01-38.92,34.9,0,51.68,19.13,51.68,38.95ZM236.97,698.25c-.02,14.01-9.3,22.34-23.04,22.36-12.34.02-21.6-8.29-21.58-22.3.02-14.05,9.3-22.38,22.34-22.4,13.04-.02,22.31,8.29,22.29,22.34Z"/>
      <path class="cls-1" d="M802.44,263.85c0,21.36-14.8,34.72-32.57,44.83-14.13,7.56-17.93,9.52-30.3,16.36-5.53,2.76-11.1,4.83-16.8,4.83-16.32,0-21.93-12.07-21.93-19.76,0-12.5,10.19-17.41,23.9-25.43,3.79-2.22,11.63-6.18,11.63-10.69,0-2.98-2.02-4.21-5.19-4.21-3.69,0-8.36,3.6-11.82,6.32-3.83,3.01-10.36,9.33-20.69,9.33-13.01,0-23.86-8.04-23.86-21.62,0-19.14,22.58-45.69,66.94-45.69,40.98,0,60.68,22.46,60.68,45.74ZM757.62,359.57c-.02,16.45-10.92,26.23-27.06,26.25-14.49.02-25.36-9.73-25.34-26.18.02-16.5,10.92-26.27,26.23-26.3,15.31-.02,26.19,9.73,26.17,26.23Z"/>
      <path class="cls-1" d="M97.62,484.45c0,16.34-11.32,26.56-24.91,34.29-10.81,5.78-13.72,7.28-23.18,12.51-4.23,2.11-8.49,3.69-12.85,3.69-12.48,0-16.77-9.23-16.77-15.11,0-9.57,7.79-13.32,18.28-19.45,2.9-1.7,8.9-4.73,8.9-8.18,0-2.28-1.55-3.22-3.97-3.22-2.82,0-6.4,2.76-9.04,4.83-2.93,2.3-7.93,7.13-15.83,7.13-9.95,0-18.25-6.15-18.25-16.54,0-14.64,17.27-34.95,51.21-34.95,31.35,0,46.41,17.18,46.42,34.99ZM63.33,557.67c-.02,12.58-8.36,20.06-20.7,20.08-11.08.01-19.4-7.44-19.38-20.03.01-12.62,8.35-20.1,20.06-20.11,11.71-.01,20.03,7.44,20.02,20.06Z"/>
      <path class="cls-1" d="M267.01,524.22c0,6.35-4.4,10.32-9.67,13.32-4.2,2.25-5.33,2.83-9,4.86-1.64.82-3.3,1.43-4.99,1.43-4.85,0-6.51-3.58-6.51-5.87,0-3.71,3.03-5.17,7.1-7.55,1.13-.66,3.46-1.83,3.46-3.18,0-.88-.6-1.25-1.54-1.25-1.1,0-2.48,1.07-3.51,1.88-1.14.9-3.08,2.77-6.15,2.77-3.87,0-7.09-2.39-7.09-6.42,0-5.68,6.71-13.58,19.89-13.58,12.18,0,18.03,6.67,18.03,13.59ZM253.69,552.66c0,4.89-3.25,7.79-8.04,7.8-4.3,0-7.53-2.89-7.53-7.78,0-4.9,3.24-7.81,7.79-7.81,4.55,0,7.78,2.89,7.77,7.79Z"/>
    </g>
  </g>
</svg>